<svg width="24" height="25" viewBox="0 0 24 25" fill="none" xmlns="http://www.w3.org/2000/svg">
<g id="Icon / Facebook">
<path id="Vector" d="M16.5 6.98291H13.5C12.9477 6.98291 12.5 7.43063 12.5 7.98291V10.9829H16.5C16.6137 10.9804 16.7216 11.0333 16.7892 11.1248C16.8568 11.2163 16.8758 11.3349 16.84 11.4429L16.1 13.6429C16.0318 13.8448 15.8431 13.9813 15.63 13.9829H12.5V21.4829C12.5 21.759 12.2761 21.9829 12 21.9829H9.5C9.22386 21.9829 9 21.759 9 21.4829V13.9829H7.5C7.22386 13.9829 7 13.759 7 13.4829V11.4829C7 11.2068 7.22386 10.9829 7.5 10.9829H9V7.98291C9 5.77377 10.7909 3.98291 13 3.98291H16.5C16.7761 3.98291 17 4.20677 17 4.48291V6.48291C17 6.75905 16.7761 6.98291 16.5 6.98291Z" fill="black"/>
</g>
</svg>
