<svg width="24" height="25" viewBox="0 0 24 25" fill="none" xmlns="http://www.w3.org/2000/svg">
<g id="Icon / Instagram">
<path id="Vector" fill-rule="evenodd" clip-rule="evenodd" d="M16 3.98291H8C5.23858 3.98291 3 6.22149 3 8.98291V16.9829C3 19.7443 5.23858 21.9829 8 21.9829H16C18.7614 21.9829 21 19.7443 21 16.9829V8.98291C21 6.22149 18.7614 3.98291 16 3.98291ZM19.25 16.9829C19.2445 18.7755 17.7926 20.2274 16 20.2329H8C6.20735 20.2274 4.75549 18.7755 4.75 16.9829V8.98291C4.75549 7.19026 6.20735 5.7384 8 5.73291H16C17.7926 5.7384 19.2445 7.19026 19.25 8.98291V16.9829ZM16.75 9.23291C17.3023 9.23291 17.75 8.78519 17.75 8.23291C17.75 7.68063 17.3023 7.23291 16.75 7.23291C16.1977 7.23291 15.75 7.68063 15.75 8.23291C15.75 8.78519 16.1977 9.23291 16.75 9.23291ZM12 8.48291C9.51472 8.48291 7.5 10.4976 7.5 12.9829C7.5 15.4682 9.51472 17.4829 12 17.4829C14.4853 17.4829 16.5 15.4682 16.5 12.9829C16.5027 11.7886 16.0294 10.6425 15.1849 9.79799C14.3404 8.9535 13.1943 8.48025 12 8.48291ZM9.25 12.9829C9.25 14.5017 10.4812 15.7329 12 15.7329C13.5188 15.7329 14.75 14.5017 14.75 12.9829C14.75 11.4641 13.5188 10.2329 12 10.2329C10.4812 10.2329 9.25 11.4641 9.25 12.9829Z" fill="black"/>
</g>
</svg>
