<svg width="24" height="25" viewBox="0 0 24 25" fill="none" xmlns="http://www.w3.org/2000/svg">
<g id="Icon / LinkedIn">
<path id="Vector" fill-rule="evenodd" clip-rule="evenodd" d="M5 3.98291H19C20.1046 3.98291 21 4.87834 21 5.98291V19.9829C21 21.0875 20.1046 21.9829 19 21.9829H5C3.89543 21.9829 3 21.0875 3 19.9829V5.98291C3 4.87834 3.89543 3.98291 5 3.98291ZM8 18.9829C8.27614 18.9829 8.5 18.759 8.5 18.4829V11.4829C8.5 11.2068 8.27614 10.9829 8 10.9829H6.5C6.22386 10.9829 6 11.2068 6 11.4829V18.4829C6 18.759 6.22386 18.9829 6.5 18.9829H8ZM7.25 9.98291C6.42157 9.98291 5.75 9.31134 5.75 8.48291C5.75 7.65448 6.42157 6.98291 7.25 6.98291C8.07843 6.98291 8.75 7.65448 8.75 8.48291C8.75 9.31134 8.07843 9.98291 7.25 9.98291ZM17.5 18.9829C17.7761 18.9829 18 18.759 18 18.4829V13.8829C18.0325 12.2937 16.8576 10.9374 15.28 10.7429C14.177 10.6422 13.1083 11.1573 12.5 12.0829V11.4829C12.5 11.2068 12.2761 10.9829 12 10.9829H10.5C10.2239 10.9829 10 11.2068 10 11.4829V18.4829C10 18.759 10.2239 18.9829 10.5 18.9829H12C12.2761 18.9829 12.5 18.759 12.5 18.4829V14.7329C12.5 13.9045 13.1716 13.2329 14 13.2329C14.8284 13.2329 15.5 13.9045 15.5 14.7329V18.4829C15.5 18.759 15.7239 18.9829 16 18.9829H17.5Z" fill="black"/>
</g>
</svg>
