<svg width="24" height="25" viewBox="0 0 24 25" fill="none" xmlns="http://www.w3.org/2000/svg">
<g id="Icon / Twitter">
<path id="Vector" d="M20.9727 7.70031C20.5083 8.31983 19.9469 8.86024 19.3102 9.30067C19.3102 9.4625 19.3102 9.62433 19.3102 9.79516C19.3153 12.734 18.1414 15.552 16.0517 17.6174C13.9619 19.6828 11.1311 20.8228 8.19393 20.7818C6.49587 20.7875 4.81955 20.3998 3.2963 19.649C3.21416 19.6131 3.16119 19.5319 3.1615 19.4422V19.3433C3.1615 19.2142 3.26611 19.1096 3.39515 19.1096C5.0643 19.0545 6.6739 18.4758 7.99622 17.4553C6.48541 17.4248 5.12607 16.5298 4.50048 15.1536C4.46889 15.0785 4.47872 14.9922 4.52645 14.9261C4.57417 14.86 4.65288 14.8236 4.73413 14.83C5.1933 14.8761 5.65706 14.8334 6.10008 14.7041C4.43227 14.3579 3.17909 12.9733 2.99974 11.2786C2.99337 11.1973 3.0298 11.1186 3.09588 11.0708C3.16195 11.0231 3.24812 11.0132 3.32326 11.0449C3.77082 11.2424 4.25397 11.3464 4.74312 11.3505C3.28172 10.3914 2.65049 8.56696 3.20643 6.90913C3.26382 6.74804 3.40169 6.62903 3.56938 6.59585C3.73706 6.56266 3.90984 6.62019 4.0242 6.7473C5.99627 8.84616 8.70592 10.0969 11.5818 10.2357C11.5082 9.94176 11.472 9.63967 11.474 9.33663C11.5009 7.74763 12.4841 6.33212 13.9633 5.75278C15.4424 5.17345 17.1248 5.54494 18.2229 6.69335C18.9713 6.55076 19.6949 6.29936 20.3706 5.94712C20.4201 5.91622 20.4829 5.91622 20.5324 5.94712C20.5633 5.99664 20.5633 6.05943 20.5324 6.10895C20.2051 6.85843 19.6522 7.48703 18.9508 7.9071C19.565 7.83587 20.1684 7.69098 20.7481 7.47555C20.7969 7.44233 20.861 7.44233 20.9098 7.47555C20.9507 7.49425 20.9813 7.53002 20.9934 7.57333C21.0055 7.61664 20.9979 7.66309 20.9727 7.70031Z" fill="black"/>
</g>
</svg>
